<?xml version="1.0" encoding="UTF-8" standalone="no"?><svg xmlns="http://www.w3.org/2000/svg" xmlns:xlink="http://www.w3.org/1999/xlink" style="isolation:isolate" viewBox="0 0 1024 1024" width="1024pt" height="1024pt"><path d=" M 718.831 278.658 L 745.347 305.174 L 705.572 344.949 L 679.056 318.432 L 718.831 278.658 Z " fill="rgb(31,122,140)"/><path d=" M 657.998 350.775 C 616.691 313.678 563.193 293.044 507.67 292.791 C 452.147 292.539 398.466 312.689 356.826 349.412 C 327.611 375.451 305.782 408.726 293.524 445.888 C 281.265 483.049 279.014 522.783 287 561.091 C 287.284 563.16 286.533 565.237 284.992 566.646 L 260.472 591.165 C 253.335 586.95 244.998 585.221 236.771 586.252 C 228.545 587.279 220.891 591.011 215.01 596.853 L 201.752 610.111 C 194.731 617.149 190.789 626.687 190.786 636.628 C 190.789 646.568 194.731 656.105 201.752 663.144 C 191.217 673.701 185.304 688.006 185.301 702.919 C 185.303 717.832 191.217 732.137 201.752 742.694 L 281.302 822.243 C 291.858 832.778 306.164 838.692 321.076 838.695 C 335.989 838.692 350.295 832.778 360.851 822.243 C 367.889 829.264 377.427 833.206 387.368 833.209 C 397.309 833.206 406.846 829.265 413.884 822.243 L 427.142 808.985 C 432.984 803.104 436.716 795.45 437.744 787.225 C 438.774 778.996 437.045 770.66 432.83 763.523 L 456.857 739.496 C 458.531 737.673 460.99 736.778 463.445 737.101 C 511.597 746.727 561.581 740.291 605.721 718.778 C 649.863 697.264 685.726 661.865 707.815 618.004 C 729.905 574.143 736.989 524.257 727.992 475.984 C 718.99 427.71 694.404 383.724 658 350.772 L 657.998 350.775 Z  M 625.209 372.273 L 586.244 411.238 C 582.725 414.752 580.747 419.525 580.747 424.497 C 580.747 429.469 582.725 434.242 586.244 437.755 C 590.981 442.492 592.829 449.395 591.097 455.867 C 589.362 462.335 584.307 467.39 577.838 469.125 C 571.367 470.857 564.464 469.009 559.727 464.272 C 556.214 460.753 551.441 458.775 546.469 458.775 C 541.497 458.775 536.724 460.753 533.21 464.272 L 493.435 504.047 L 477.912 488.524 C 484.635 474.437 485.204 458.19 479.484 443.67 C 473.767 429.147 462.271 417.65 447.747 411.933 C 433.227 406.213 416.98 406.781 402.893 413.504 L 374.39 385.002 C 376.921 382.455 379.21 379.74 381.906 377.315 C 415.336 347.884 458.103 331.231 502.637 330.305 C 547.171 329.38 590.589 344.249 625.214 372.272 L 625.209 372.273 Z  M 350.342 413.993 L 387.366 451.016 C 390.879 454.535 395.652 456.513 400.624 456.513 C 405.596 456.513 410.369 454.535 413.883 451.016 C 418.62 446.279 425.522 444.431 431.994 446.163 C 438.463 447.898 443.517 452.952 445.252 459.421 C 446.984 465.893 445.136 472.796 440.399 477.533 C 436.88 481.046 434.902 485.819 434.902 490.791 C 434.902 495.763 436.88 500.536 440.399 504.049 L 466.916 530.566 L 438.134 559.347 C 424.047 552.624 407.801 552.056 393.28 557.775 C 378.757 563.493 367.261 574.989 361.543 589.513 C 355.823 604.033 356.392 620.279 363.115 634.366 L 334.334 663.148 L 287.93 616.744 L 311.508 593.166 C 321.979 582.888 326.575 568.033 323.741 553.637 C 318.78 529.755 318.576 505.129 323.139 481.164 C 327.705 457.202 336.947 434.376 350.343 413.992 L 350.342 413.993 Z  M 307.817 795.731 L 228.267 716.182 C 224.754 712.663 222.782 707.895 222.782 702.923 C 222.782 697.952 224.754 693.184 228.267 689.665 L 334.333 795.731 C 330.814 799.245 326.047 801.217 321.075 801.217 C 316.103 801.217 311.336 799.245 307.817 795.731 L 307.817 795.731 Z  M 228.267 636.632 L 241.526 623.374 L 400.625 782.473 L 387.394 795.759 L 228.267 636.632 Z  M 470.784 700.321 C 456.028 697.509 440.85 702.263 430.335 712.984 L 407.249 736.069 L 360.846 689.665 L 400.62 649.891 C 404.139 646.377 406.117 641.604 406.117 636.632 C 406.117 631.66 404.139 626.887 400.62 623.374 C 395.883 618.637 394.035 611.734 395.767 605.262 C 397.502 598.794 402.557 593.739 409.026 592.004 C 415.497 590.272 422.4 592.12 427.137 596.857 C 430.65 600.376 435.423 602.354 440.395 602.354 C 445.367 602.354 450.14 600.376 453.654 596.857 L 493.429 557.082 L 508.952 572.605 C 502.228 586.692 501.66 602.939 507.38 617.459 C 513.097 631.982 524.593 643.478 539.117 649.196 C 553.637 654.916 569.884 654.348 583.971 647.625 L 609.75 673.404 C 568.76 700.279 518.843 709.947 470.782 700.323 L 470.784 700.321 Z  M 639.248 649.866 L 599.496 610.113 C 595.982 606.594 591.209 604.616 586.237 604.616 C 581.265 604.616 576.492 606.594 572.979 610.113 C 568.242 614.85 561.339 616.698 554.867 614.966 C 548.398 613.231 543.344 608.177 541.609 601.708 C 539.877 595.236 541.725 588.333 546.462 583.596 C 549.981 580.083 551.959 575.31 551.959 570.338 C 551.959 565.366 549.981 560.593 546.462 557.08 L 519.946 530.563 L 548.727 501.782 C 562.814 508.505 579.06 509.073 593.581 503.354 C 608.104 497.636 619.6 486.14 625.318 471.616 C 631.038 457.096 630.469 440.85 623.746 426.763 L 651.743 398.765 C 681.224 434.599 696.316 480.124 694.08 526.474 C 691.843 572.822 672.438 616.682 639.648 649.512 L 639.248 649.866 Z " fill="rgb(31,122,140)"/><path d=" M 718.831 676.405 L 758.605 716.18 L 732.089 742.696 L 692.314 702.922 L 718.831 676.405 Z " fill="rgb(31,122,140)"/><path d=" M 307.825 265.399 L 347.6 305.174 L 321.083 331.691 L 281.308 291.916 L 307.825 265.399 Z " fill="rgb(31,122,140)"/><path d=" M 501.211 185.305 L 538.711 185.305 L 538.711 241.549 L 501.211 241.549 L 501.211 185.305 Z " fill="rgb(31,122,140)"/><path d=" M 782.456 485.303 L 838.699 485.303 L 838.699 522.802 L 782.456 522.802 L 782.456 485.303 Z " fill="rgb(31,122,140)"/></svg>